<svg width="21" height="16" viewBox="0 0 21 16" fill="none" xmlns="http://www.w3.org/2000/svg">
<path d="M19.7278 3.89012C19.4915 3.68844 19.1581 3.64594 18.8787 3.78195L14.6036 5.8632L10.5922 1.23813C10.4438 1.06703 10.2284 0.96875 10.002 0.96875C9.77548 0.96875 9.56016 1.06703 9.41177 1.23813L5.40036 5.86316L1.1252 3.78191C0.84579 3.64594 0.51243 3.6884 0.276102 3.89008C0.0397742 4.09176 -0.0546008 4.41434 0.0357508 4.7116L3.0045 14.4772C3.10454 14.8063 3.40802 15.0312 3.75196 15.0312H16.252C16.5959 15.0312 16.8994 14.8063 16.9994 14.4773L19.9681 4.71164C20.0585 4.41437 19.9641 4.0918 19.7278 3.89012ZM15.6729 13.4688H4.33099L2.05165 5.97078L5.25563 7.53059C5.57376 7.68543 5.95602 7.60723 6.18778 7.34004L10.002 2.94238L13.8162 7.34004C14.0479 7.60727 14.4303 7.68539 14.7483 7.53059L17.9523 5.97078L15.6729 13.4688Z" fill="white"/>
</svg>
