<svg width="21" height="20" viewBox="0 0 21 20" fill="none" xmlns="http://www.w3.org/2000/svg">
<path d="M10.502 0C8.52414 0 6.59074 0.58649 4.94625 1.6853C3.30176 2.78412 2.02004 4.3459 1.26316 6.17316C0.506286 8.00042 0.308253 10.0111 0.694105 11.9509C1.07996 13.8907 2.03236 15.6725 3.43089 17.0711C4.82941 18.4696 6.61124 19.422 8.55105 19.8078C10.4909 20.1937 12.5015 19.9957 14.3288 19.2388C16.156 18.4819 17.7178 17.2002 18.8167 15.5557C19.9155 13.9112 20.502 11.9778 20.502 10C20.499 7.34874 19.4445 4.80692 17.5698 2.93219C15.695 1.05747 13.1532 0.0029546 10.502 0ZM10.502 18.6046C8.80012 18.6046 7.1365 18.1 5.72147 17.1545C4.30644 16.209 3.20356 14.8651 2.5523 13.2929C1.90103 11.7206 1.73063 9.99045 2.06264 8.32131C2.39465 6.65217 3.21417 5.11897 4.41755 3.91559C5.62093 2.71221 7.15413 1.8927 8.82327 1.56068C10.4924 1.22867 12.2225 1.39907 13.7948 2.05034C15.3671 2.7016 16.711 3.80448 17.6565 5.21951C18.6019 6.63454 19.1066 8.29816 19.1066 10C19.1041 12.2813 18.1968 14.4685 16.5836 16.0817C14.9705 17.6948 12.7833 18.6022 10.502 18.6046ZM11.4192 9.50883L9.92335 9.13674C9.69496 9.07961 9.49265 8.94682 9.3494 8.76C9.20736 8.57811 9.13098 8.35356 9.13265 8.12279C9.13315 7.84621 9.2433 7.58112 9.43895 7.38564C9.63461 7.19016 9.8998 7.08024 10.1764 7.08H10.8275C11.0846 7.08046 11.3326 7.17555 11.524 7.34712C11.7155 7.51868 11.8371 7.75473 11.8657 8.01023C11.8733 8.10329 11.8995 8.19388 11.9428 8.27662C11.9861 8.35936 12.0455 8.43258 12.1176 8.49192C12.1897 8.55127 12.273 8.59554 12.3625 8.62211C12.452 8.64868 12.5459 8.65702 12.6387 8.64662C12.7315 8.63622 12.8213 8.60729 12.9027 8.56156C12.9841 8.51583 13.0555 8.45423 13.1127 8.3804C13.1698 8.30656 13.2116 8.22201 13.2355 8.13174C13.2594 8.04147 13.2649 7.94732 13.2517 7.85488C13.1919 7.31911 12.956 6.81834 12.5809 6.43112C12.2058 6.04391 11.7128 5.79215 11.1792 5.71535V5.34884C11.1792 5.1638 11.1057 4.98634 10.9748 4.85551C10.844 4.72467 10.6665 4.65116 10.4815 4.65116C10.2965 4.65116 10.119 4.72467 9.98816 4.85551C9.85732 4.98634 9.78382 5.1638 9.78382 5.34884V5.72093C9.23045 5.81096 8.72509 6.08915 8.35304 6.50856C7.98099 6.92797 7.76505 7.4629 7.74165 8.02305C7.71826 8.58321 7.88885 9.13428 8.22463 9.58325C8.56041 10.0322 9.04081 10.3516 9.58475 10.4874L11.0806 10.8595C11.3275 10.9217 11.5432 11.0719 11.6871 11.2819C11.8311 11.492 11.8934 11.7473 11.8623 12.0001C11.8312 12.2528 11.7089 12.4854 11.5184 12.6543C11.3278 12.8232 11.0822 12.9167 10.8275 12.9172H10.1764C9.91928 12.9167 9.67136 12.8217 9.47989 12.6501C9.28842 12.4785 9.1668 12.2425 9.13823 11.987C9.13061 11.8939 9.10439 11.8033 9.06111 11.7206C9.01784 11.6378 8.95839 11.5646 8.8863 11.5053C8.81421 11.4459 8.73094 11.4017 8.64143 11.3751C8.55191 11.3485 8.45797 11.3402 8.36518 11.3506C8.27238 11.361 8.18262 11.3899 8.10121 11.4356C8.0198 11.4814 7.9484 11.543 7.89123 11.6168C7.83407 11.6906 7.79231 11.7752 7.76842 11.8655C7.74454 11.9557 7.73902 12.0499 7.75219 12.1423C7.81079 12.6716 8.04117 13.167 8.40807 13.5529C8.77498 13.9388 9.2582 14.1939 9.78382 14.2791V14.6512C9.78382 14.8362 9.85732 15.0136 9.98816 15.1445C10.119 15.2753 10.2965 15.3488 10.4815 15.3488C10.6665 15.3488 10.844 15.2753 10.9748 15.1445C11.1057 15.0136 11.1792 14.8362 11.1792 14.6512V14.2791C11.7379 14.1986 12.2512 13.9264 12.6314 13.5092C13.0116 13.092 13.235 12.5556 13.2634 11.9918C13.2917 11.428 13.1233 10.8719 12.7869 10.4187C12.4504 9.9654 11.967 9.64312 11.4192 9.50697V9.50883Z" fill="white"/>
</svg>
