<svg width="19" height="18" viewBox="0 0 19 18" fill="none" xmlns="http://www.w3.org/2000/svg">
<path d="M8.21814 18.0013C8.2177 18.0013 8.21715 18.0013 8.2166 18.0013C7.65329 18.0008 7.1236 17.7811 6.72543 17.3822L1.11718 11.766C0.296879 10.9441 0.296879 9.6069 1.11718 8.78517L8.67718 1.21067C9.45627 0.430035 10.4929 0 11.596 0H16.3924C17.5555 0 18.502 0.946209 18.502 2.10952V6.89122C18.502 7.99355 18.0724 9.02975 17.2925 9.80873L9.70898 17.3843C9.31059 17.7822 8.78112 18.0013 8.21814 18.0013ZM11.596 1.40635C10.8691 1.40635 10.186 1.68971 9.67261 2.20412L2.1125 9.77863C1.83903 10.0526 1.83903 10.4983 2.1125 10.7723L7.72075 16.3886C7.85337 16.5214 8.02982 16.5948 8.2177 16.5949H8.21825C8.40591 16.5949 8.58236 16.5218 8.71508 16.3893L16.2986 8.81385C16.8126 8.30053 17.0956 7.61757 17.0956 6.89122V2.10952C17.0956 1.72179 16.7802 1.40635 16.3924 1.40635H11.596ZM13.4038 7.13722C12.2406 7.13722 11.2943 6.19101 11.2943 5.0277C11.2943 3.86438 12.2406 2.91817 13.4038 2.91817C14.567 2.91817 15.5134 3.86438 15.5134 5.0277C15.5134 6.19101 14.567 7.13722 13.4038 7.13722ZM13.4038 4.32452C13.0161 4.32452 12.7007 4.63996 12.7007 5.0277C12.7007 5.41543 13.0161 5.73087 13.4038 5.73087C13.7917 5.73087 14.107 5.41543 14.107 5.0277C14.107 4.63996 13.7917 4.32452 13.4038 4.32452Z" fill="white"/>
</svg>
